<?xml version="1.0" standalone="no"?>
<!DOCTYPE svg PUBLIC "-//W3C//DTD SVG 20010904//EN"
 "http://www.w3.org/TR/2001/REC-SVG-20010904/DTD/svg10.dtd">
<svg version="1.0" xmlns="http://www.w3.org/2000/svg"
 width="1422.000000pt" height="1422.000000pt" viewBox="0 0 1422.000000 1422.000000"
 preserveAspectRatio="xMidYMid meet">
<metadata>
Created by potrace 1.11, written by Peter Selinger 2001-2013
</metadata>
<g transform="translate(0.000000,1422.000000) scale(0.100000,-0.100000)"
fill="#000000" stroke="none">
<path d="M6008 11395 c-2 -2 -41 -6 -88 -9 -86 -6 -137 -11 -200 -22 -19 -3
-50 -7 -69 -9 -19 -3 -57 -9 -85 -15 -28 -5 -62 -12 -76 -14 -14 -3 -25 -5
-25 -6 0 -1 -12 -3 -26 -5 -14 -2 -45 -9 -70 -15 -24 -7 -53 -14 -64 -16 -57
-9 -456 -143 -466 -157 -3 -5 -10 -9 -15 -9 -5 0 -20 -5 -34 -10 -14 -5 -25
-8 -25 -7 0 2 -13 -4 -30 -13 -16 -9 -88 -45 -160 -79 -71 -35 -141 -70 -155
-80 -20 -13 -153 -93 -238 -144 -28 -17 -77 -49 -82 -55 -3 -3 -27 -21 -55
-40 -27 -19 -51 -38 -53 -42 -2 -4 -8 -8 -13 -8 -6 0 -21 -11 -35 -25 -14 -14
-28 -25 -32 -25 -4 0 -21 -12 -38 -27 -17 -16 -55 -48 -85 -73 -120 -100 -325
-300 -410 -401 -24 -28 -55 -63 -69 -78 -63 -65 -270 -343 -270 -361 0 -5 -5
-10 -10 -10 -6 0 -15 -10 -20 -22 -6 -13 -39 -68 -75 -123 -35 -55 -65 -106
-65 -112 0 -7 -4 -13 -8 -13 -11 0 -228 -433 -238 -472 -3 -16 -10 -28 -15
-28 -5 0 -8 -3 -7 -7 2 -7 -22 -75 -63 -178 -7 -16 -14 -38 -16 -48 -1 -10
-10 -31 -18 -47 -8 -16 -17 -37 -18 -47 -2 -10 -7 -25 -10 -33 -7 -20 -26 -82
-32 -106 -3 -10 -16 -59 -30 -109 -14 -49 -28 -101 -31 -115 -2 -14 -7 -36
-10 -50 -3 -14 -7 -32 -9 -40 -2 -8 -4 -15 -5 -15 -1 0 -3 -11 -6 -25 -2 -14
-9 -47 -14 -75 -6 -27 -12 -66 -15 -85 -3 -19 -7 -46 -10 -60 -3 -14 -8 -38
-10 -55 -6 -50 -16 -128 -20 -154 -15 -91 -26 -269 -29 -474 -2 -98 -7 -181
-12 -186 -5 -4 -45 -23 -89 -41 -156 -64 -413 -198 -452 -236 -29 -28 -84 -54
-164 -77 -48 -14 -98 -31 -110 -38 -13 -7 -24 -11 -24 -10 0 8 -230 -69 -315
-106 -8 -3 -19 -5 -24 -4 -4 1 -15 -4 -23 -11 -8 -7 -20 -13 -27 -14 -37 -5
-383 -169 -481 -227 -161 -96 -317 -217 -373 -291 -12 -16 -22 -25 -22 -20 0
9 -52 -70 -84 -126 -48 -86 -65 -204 -44 -300 6 -30 13 -61 14 -68 1 -7 7 -19
13 -26 6 -7 21 -32 34 -54 12 -23 31 -53 42 -69 45 -61 229 -230 246 -225 5 1
9 -2 9 -8 0 -5 12 -16 28 -25 15 -9 39 -23 53 -33 91 -59 335 -188 362 -191 4
0 27 -12 52 -26 25 -13 45 -22 45 -19 0 4 10 0 23 -8 12 -8 81 -36 152 -62 72
-26 141 -53 155 -59 14 -5 30 -11 35 -13 15 -3 208 -65 225 -72 8 -3 20 -7 25
-7 6 -1 17 -4 25 -8 27 -10 125 -39 143 -42 9 -2 65 -17 125 -34 102 -29 251
-66 300 -76 12 -2 25 -6 30 -8 4 -3 23 -8 42 -11 19 -3 46 -8 60 -12 14 -3 34
-7 45 -10 11 -2 52 -11 90 -20 39 -8 81 -18 95 -20 14 -3 68 -14 120 -24 52
-11 106 -22 120 -24 14 -2 36 -7 50 -10 14 -4 39 -8 55 -10 17 -3 41 -7 55
-10 13 -3 42 -9 65 -12 22 -4 51 -8 65 -11 14 -2 36 -6 50 -8 14 -2 41 -7 60
-10 84 -15 143 -24 178 -29 23 -3 46 -19 85 -61 96 -104 237 -246 237 -239 0
4 -25 37 -55 75 -30 37 -55 72 -55 78 0 5 -3 11 -8 13 -17 7 -81 108 -72 113
6 3 14 4 19 1 5 -3 29 -8 52 -11 24 -3 56 -8 70 -10 40 -7 109 -16 156 -20 24
-2 46 -6 51 -8 4 -3 30 -6 57 -8 28 -1 54 -4 59 -7 4 -2 29 -6 55 -9 25 -2 60
-6 76 -8 17 -2 57 -6 90 -9 33 -4 76 -9 95 -12 38 -5 80 -29 80 -45 0 -5 75
-85 168 -177 182 -182 224 -220 382 -336 41 -31 80 -59 85 -64 6 -4 28 -19 50
-32 22 -13 42 -27 45 -30 11 -13 221 -131 305 -172 50 -24 93 -47 97 -53 4 -5
8 -7 8 -3 0 4 28 -5 63 -21 60 -27 302 -113 314 -112 2 0 21 -6 44 -14 23 -9
51 -17 63 -20 12 -2 51 -11 87 -19 36 -8 79 -17 95 -20 16 -2 39 -7 51 -10 11
-2 43 -8 70 -12 26 -3 55 -8 64 -9 151 -27 619 -26 784 1 17 3 46 7 65 10 19
2 46 6 60 9 54 11 76 16 110 21 19 3 39 8 43 11 5 3 23 7 40 10 125 19 431
131 639 233 96 48 281 152 322 183 6 4 49 34 96 67 47 33 102 74 124 92 21 18
45 37 54 42 9 5 26 19 38 30 12 12 48 44 79 71 31 28 101 94 154 147 57 58
104 97 116 97 19 0 77 4 250 15 39 2 120 7 180 11 136 8 172 12 187 21 7 5 8
3 3 -6 -5 -7 -4 -11 1 -7 5 3 45 8 89 12 44 4 94 9 110 11 40 3 166 14 235 19
60 4 145 13 200 20 19 2 67 7 105 11 39 3 84 8 100 10 17 2 59 6 95 9 36 4 76
8 90 10 14 3 50 7 80 11 30 3 66 7 80 10 14 2 48 7 75 9 28 3 61 7 75 10 14 3
54 8 90 11 35 3 67 7 70 9 3 2 30 6 60 10 88 12 104 14 130 18 14 3 79 12 145
22 66 9 122 18 125 20 3 1 25 6 50 9 25 3 55 8 66 10 12 2 37 7 55 10 19 3 45
8 59 11 14 3 41 8 60 10 45 6 63 9 75 16 6 3 20 4 33 3 12 0 22 3 22 8 0 5 4
6 10 3 5 -3 27 -1 47 4 40 11 109 23 131 24 6 0 12 4 12 9 0 5 4 7 8 4 4 -3
26 -1 48 4 21 5 54 11 71 15 18 3 63 12 100 21 38 9 76 18 86 20 9 2 27 6 40
10 12 3 33 7 47 10 14 2 32 7 40 10 8 3 27 7 42 9 15 2 46 9 70 16 24 6 48 12
53 14 6 1 17 5 25 8 13 5 51 15 85 22 32 8 282 77 295 82 8 4 17 7 20 7 3 1
11 5 18 10 7 4 16 5 19 2 3 -3 11 -2 17 2 6 5 38 17 71 26 63 18 90 27 140 47
17 7 35 13 40 14 6 2 42 15 80 30 39 15 75 28 80 29 62 12 503 221 492 232 -3
3 -18 -1 -34 -9 -27 -14 -292 -105 -323 -111 -8 -1 -49 -13 -90 -26 -41 -14
-78 -25 -82 -26 -5 -1 -9 -2 -10 -4 -2 -1 -10 -3 -18 -5 -8 -1 -60 -15 -115
-30 -108 -30 -195 -52 -235 -61 -14 -3 -61 -14 -105 -25 -43 -11 -88 -22 -100
-23 -11 -1 -27 -5 -35 -8 -8 -4 -44 -12 -80 -18 -36 -7 -72 -14 -80 -16 -84
-20 -109 -26 -135 -29 -16 -2 -41 -6 -55 -9 -14 -4 -36 -8 -50 -11 -14 -3 -36
-7 -50 -10 -45 -9 -385 -68 -465 -81 -16 -2 -41 -6 -55 -9 -39 -7 -81 -14
-135 -20 -27 -4 -63 -9 -80 -11 -155 -25 -251 -38 -345 -48 -83 -9 -146 -17
-160 -21 -8 -2 -49 -7 -90 -10 -41 -4 -84 -9 -95 -11 -11 -2 -49 -6 -85 -9
-36 -3 -76 -7 -90 -9 -39 -7 -139 -17 -205 -22 -33 -2 -82 -6 -110 -9 -27 -3
-77 -7 -110 -10 -33 -2 -60 -4 -60 -5 0 -2 -70 -8 -172 -14 -78 -5 -149 -10
-293 -21 -36 -3 -104 -7 -153 -10 -48 -2 -91 -7 -96 -10 -5 -3 -12 -1 -16 5
-4 6 -11 7 -17 4 -12 -7 -39 -9 -258 -18 -80 -4 -177 -9 -217 -11 -47 -4 -74
-1 -79 6 -3 6 -2 14 3 18 15 9 133 180 133 191 0 6 3 10 8 10 4 0 12 9 17 20
6 10 35 63 67 117 110 191 235 462 277 602 18 58 24 63 110 77 18 3 42 8 52
10 11 2 27 6 38 8 10 2 34 7 52 10 32 5 81 15 104 20 72 17 132 29 143 29 6 0
12 3 12 7 0 3 8 6 18 6 22 1 67 11 110 23 18 5 35 10 37 10 3 1 6 1 8 2 7 2
35 9 59 14 15 3 40 10 55 16 16 6 30 10 33 10 10 0 57 12 135 36 98 29 265 83
285 90 8 4 17 7 20 7 17 3 109 40 132 52 15 8 29 14 30 14 4 -2 37 10 96 36
29 13 56 24 60 24 40 8 371 201 380 222 2 4 8 8 13 8 5 0 17 8 27 18 10 9 33
31 52 47 37 33 106 114 131 155 72 118 73 259 3 386 -29 52 -152 190 -196 219
-51 34 -134 91 -138 95 -23 23 -298 158 -430 210 -98 40 -417 148 -450 153 -8
1 -20 6 -26 9 -6 4 -21 9 -35 12 -13 2 -78 19 -144 36 -66 17 -127 33 -135 35
-8 2 -46 11 -85 20 -38 9 -81 19 -95 21 -14 3 -41 9 -60 14 -19 5 -47 11 -63
14 -15 3 -35 7 -45 10 -9 3 -33 8 -52 10 -73 9 -131 29 -141 48 -6 11 -8 22
-6 25 3 3 -1 22 -8 44 -8 22 -15 43 -16 47 -12 54 -86 269 -126 367 -69 170
-175 383 -251 505 -9 14 -15 27 -13 29 1 2 -1 7 -6 10 -5 3 -24 31 -42 61 -19
30 -39 58 -45 62 -6 4 -7 8 -3 8 4 0 -4 12 -18 27 -14 15 -25 33 -25 40 0 6
-3 13 -7 15 -5 2 -28 30 -52 63 -25 33 -47 62 -50 65 -5 4 -43 49 -116 140
-36 44 -279 284 -334 330 -30 25 -59 50 -65 55 -6 6 -27 22 -48 37 -20 15 -42
33 -50 40 -8 7 -21 18 -29 23 -9 6 -78 52 -154 103 -76 50 -144 92 -151 92 -8
0 -14 5 -14 10 0 6 -6 10 -14 10 -7 0 -19 7 -26 15 -7 8 -16 13 -20 10 -5 -3
-11 -1 -14 4 -8 12 -163 87 -276 134 -186 76 -337 124 -520 163 -98 21 -107
23 -155 29 -22 4 -53 8 -70 11 -74 11 -106 14 -190 20 -111 8 -387 11 -399 5
-5 -2 -37 -6 -70 -7 -51 -3 -101 -9 -101 -14 0 0 -27 -2 -60 -5 -33 -2 -73 -7
-90 -11 -16 -4 -42 -7 -57 -8 -16 0 -28 -4 -28 -8 0 -4 -8 -7 -17 -7 -28 1
-65 -6 -103 -19 -19 -6 -48 -14 -65 -17 -47 -9 -151 -39 -190 -55 -11 -4 -49
-18 -85 -31 -36 -12 -69 -25 -75 -29 -5 -4 -21 -11 -35 -15 -25 -7 -101 -40
-130 -56 -8 -4 -48 -24 -89 -44 -72 -34 -311 -172 -321 -184 -3 -3 -25 -20
-50 -36 -41 -27 -190 -140 -241 -183 -153 -127 -449 -432 -449 -462 0 -5 -4
-10 -9 -10 -9 0 -126 -153 -165 -215 -10 -16 -21 -32 -25 -35 -7 -5 -77 -118
-118 -191 -13 -21 -34 -58 -48 -81 -49 -87 -172 -346 -185 -393 -2 -5 -15 -39
-30 -75 -24 -59 -83 -241 -124 -380 -13 -46 -20 -56 -39 -58 -13 -1 -57 -9
-98 -18 -40 -9 -85 -17 -99 -19 -14 -2 -63 -13 -110 -24 -47 -11 -98 -22 -115
-25 -16 -3 -60 -14 -97 -25 -38 -11 -68 -18 -68 -16 0 2 -18 -2 -40 -10 -22
-8 -40 -12 -40 -10 0 2 -16 -3 -35 -11 -19 -8 -38 -14 -42 -14 -5 0 -23 -5
-41 -11 -40 -13 -65 -5 -58 18 6 19 12 61 20 153 3 30 8 66 11 80 3 14 7 41
10 60 3 19 7 46 10 60 3 14 7 39 10 55 5 35 12 70 19 93 3 9 8 33 11 52 14 79
58 248 101 385 20 61 38 117 41 125 4 8 7 17 7 20 4 19 93 247 104 265 4 6 7
15 8 20 6 38 170 364 250 496 19 31 34 60 34 63 0 4 5 12 11 19 5 7 42 62 82
122 39 61 75 115 79 120 40 50 68 89 68 94 0 3 18 26 40 50 22 25 40 47 40 51
0 3 8 15 18 26 10 10 47 53 82 94 74 86 181 199 259 274 30 28 68 65 85 82 36
35 208 180 250 209 15 11 44 35 65 52 20 18 41 33 46 33 6 0 23 11 39 25 16
14 32 25 36 25 3 0 15 8 26 18 10 10 41 31 68 47 27 17 61 37 75 46 57 36 203
119 208 119 3 0 17 9 31 19 15 10 30 19 35 19 4 1 40 16 80 36 126 60 256 114
261 108 3 -3 6 0 6 7 0 7 4 10 8 7 5 -3 19 1 33 8 13 7 46 19 72 26 26 8 47
18 47 23 0 4 4 6 9 3 5 -3 35 3 67 15 49 16 164 48 237 65 9 2 27 6 40 9 19 5
49 11 132 29 36 7 126 20 215 32 30 4 66 8 80 10 167 23 638 22 782 -1 12 -2
46 -6 73 -10 88 -11 119 -15 145 -21 14 -3 32 -7 40 -9 8 -1 47 -8 85 -16 39
-7 73 -12 78 -11 4 1 7 -3 7 -9 0 -5 4 -8 8 -5 4 3 42 -4 83 -15 40 -11 81
-22 89 -24 39 -9 275 -89 298 -101 15 -8 32 -14 38 -14 6 0 33 -10 60 -22 27
-12 52 -21 57 -20 4 1 7 -3 7 -10 0 -6 2 -9 6 -6 9 9 347 -163 446 -228 21
-13 42 -24 48 -24 5 0 10 -4 10 -10 0 -5 4 -10 10 -10 10 0 94 -55 118 -77 7
-7 17 -13 21 -13 4 0 21 -11 37 -25 16 -14 32 -25 35 -25 4 0 22 -13 40 -30
19 -16 37 -30 41 -30 4 0 23 -15 43 -34 19 -19 35 -33 35 -30 0 2 9 -4 21 -14
11 -9 30 -25 42 -35 12 -10 38 -33 57 -50 56 -51 78 -64 44 -27 -17 19 -42 48
-55 64 -30 36 -259 267 -319 321 -67 61 -182 157 -214 180 -15 11 -42 32 -59
47 -18 15 -35 28 -39 28 -4 0 -13 6 -20 13 -21 21 -226 157 -237 157 -5 0 -11
3 -13 8 -4 10 -144 92 -156 92 -6 0 -12 3 -14 8 -4 9 -250 131 -338 167 -36
14 -79 32 -95 40 -39 18 -202 74 -234 81 -13 3 -39 11 -57 19 -19 8 -34 12
-34 9 0 -3 -8 0 -19 5 -10 6 -31 13 -47 15 -16 3 -64 15 -108 26 -43 11 -82
17 -87 14 -5 -3 -9 -1 -9 4 0 5 -6 9 -12 9 -13 1 -27 4 -133 22 -87 15 -133
22 -190 27 -27 2 -70 7 -95 9 -50 6 -527 15 -532 10z m-2512 -4216 c0 -8 -3
-27 -8 -43 -4 -16 -10 -45 -13 -65 -3 -20 -8 -48 -10 -61 -3 -14 -8 -45 -11
-70 -3 -25 -8 -58 -10 -75 -3 -16 -7 -48 -9 -70 -2 -22 -7 -76 -11 -120 -9
-97 -9 -532 0 -630 11 -121 15 -149 21 -182 3 -18 4 -33 3 -33 -2 0 -19 5 -38
11 -34 10 -50 14 -87 23 -96 24 -357 109 -428 141 -16 7 -48 20 -70 29 -123
50 -154 69 -159 95 -26 132 -42 713 -21 754 10 20 142 92 181 99 10 2 21 6 24
9 16 19 316 120 503 169 60 16 111 31 115 34 9 10 27 1 28 -15z m6492 -19 c4
0 25 -6 47 -12 22 -6 45 -12 52 -14 17 -3 85 -24 108 -33 11 -5 45 -16 75 -26
153 -50 372 -142 444 -188 11 -7 44 -27 74 -45 106 -66 213 -177 224 -234 2
-7 6 -16 11 -19 8 -6 12 -100 5 -139 -9 -50 -50 -113 -120 -181 -39 -38 -75
-69 -80 -69 -5 0 -17 -8 -28 -17 -10 -10 -40 -29 -67 -43 -26 -14 -50 -27 -53
-30 -5 -5 -82 -43 -90 -44 -3 -1 -9 -4 -15 -8 -5 -3 -41 -18 -80 -33 -38 -15
-84 -34 -102 -42 -17 -8 -37 -16 -45 -17 -7 -2 -20 -5 -28 -8 -94 -34 -265
-87 -309 -95 -13 -2 -28 -6 -33 -9 -4 -3 -17 -7 -29 -9 -11 -2 -29 -7 -40 -10
-13 -4 -18 -2 -15 7 8 22 18 120 20 175 0 29 3 53 6 53 3 0 6 53 8 118 2 64 4
147 5 185 1 37 0 67 -3 67 -3 0 -6 46 -7 103 -2 129 -12 241 -34 387 -6 41
-13 91 -16 110 -3 19 -11 61 -18 92 -7 31 -11 59 -8 61 2 3 33 -3 69 -13 35
-10 68 -19 72 -20z m-8494 -662 c-10 -13 -21 -25 -24 -28 -21 -21 -68 -122
-78 -168 -12 -50 -6 -161 9 -178 6 -8 9 -14 5 -14 -11 0 37 -84 80 -140 39
-52 146 -153 183 -174 9 -5 18 -12 21 -16 12 -16 193 -121 280 -162 133 -64
156 -73 262 -113 51 -20 102 -40 113 -45 18 -8 55 -20 80 -26 6 -2 34 -12 64
-23 30 -11 57 -18 61 -16 8 5 24 -24 22 -37 -1 -5 3 -8 10 -8 6 0 9 -3 6 -6
-16 -15 182 -423 300 -622 34 -57 62 -105 62 -107 0 -1 -30 6 -67 17 -38 10
-77 20 -88 22 -11 2 -40 10 -65 17 -25 7 -49 13 -55 15 -187 46 -635 198 -845
287 -14 6 -27 11 -30 12 -6 1 -83 37 -170 78 -105 50 -343 190 -370 217 -3 3
-23 18 -44 34 -63 47 -186 168 -186 183 0 8 -4 11 -10 8 -5 -3 -10 -1 -10 6 0
7 -6 20 -14 28 -26 29 -84 155 -91 196 -15 94 -6 179 28 260 43 103 141 225
262 324 42 35 199 142 225 154 8 4 29 16 45 26 41 26 52 26 29 -1z m1480
-1224 c56 -14 112 -28 126 -31 47 -10 55 -11 55 -13 0 -1 14 -3 30 -6 37 -5
70 -12 70 -14 0 -2 18 -6 60 -13 17 -3 52 -10 78 -16 26 -6 65 -13 85 -16 20
-3 52 -9 70 -14 17 -5 32 -8 32 -5 0 3 8 0 19 -5 10 -6 22 -23 26 -38 24 -97
197 -478 285 -628 36 -62 37 -68 3 -61 -38 9 -73 15 -108 21 -16 3 -55 10 -85
16 -30 6 -68 13 -85 16 -16 2 -61 11 -100 19 -38 9 -92 20 -120 25 -27 5 -72
14 -100 20 -27 5 -61 13 -75 16 -14 3 -29 6 -35 8 -5 1 -25 6 -44 10 -28 7
-37 16 -57 61 -12 28 -27 55 -32 58 -6 3 -12 16 -16 29 -3 13 -18 50 -33 83
-14 32 -27 61 -28 64 -1 3 -5 12 -8 20 -11 26 -25 65 -25 73 -1 4 -8 20 -16
35 -9 15 -34 83 -56 152 -23 69 -45 132 -50 141 -11 20 -2 32 18 24 8 -3 60
-17 116 -31z"/>
</g>
</svg>
